<svg xmlns="http://www.w3.org/2000/svg" xmlns:xlink="http://www.w3.org/1999/xlink" width="250" zoomAndPan="magnify" viewBox="0 0 187.5 119.999999" height="160" preserveAspectRatio="xMidYMid meet" version="1.0"><defs><g/></defs><g fill="#000000" fill-opacity="1"><g transform="translate(11.999999, 70.362707)"><g><path d="M 9.765625 -15.5625 C 11.097656 -15.5625 12.289062 -15.222656 13.34375 -14.546875 C 14.40625 -13.867188 15.242188 -12.941406 15.859375 -11.765625 C 16.484375 -10.585938 16.796875 -9.21875 16.796875 -7.65625 C 16.796875 -6.09375 16.484375 -4.71875 15.859375 -3.53125 C 15.242188 -2.34375 14.414062 -1.410156 13.375 -0.734375 C 12.34375 -0.0546875 11.175781 0.28125 9.875 0.28125 C 9.113281 0.28125 8.398438 0.160156 7.734375 -0.078125 C 7.066406 -0.328125 6.484375 -0.640625 5.984375 -1.015625 C 5.484375 -1.398438 5.09375 -1.785156 4.8125 -2.171875 C 4.539062 -2.566406 4.40625 -2.898438 4.40625 -3.171875 L 5.28125 -3.546875 L 5.28125 -1.453125 C 5.28125 -0.960938 5.117188 -0.550781 4.796875 -0.21875 C 4.472656 0.113281 4.066406 0.28125 3.578125 0.28125 C 3.078125 0.28125 2.664062 0.117188 2.34375 -0.203125 C 2.019531 -0.523438 1.859375 -0.941406 1.859375 -1.453125 L 1.859375 -19.390625 C 1.859375 -19.890625 2.019531 -20.304688 2.34375 -20.640625 C 2.664062 -20.972656 3.078125 -21.140625 3.578125 -21.140625 C 4.066406 -21.140625 4.472656 -20.972656 4.796875 -20.640625 C 5.117188 -20.304688 5.28125 -19.890625 5.28125 -19.390625 L 5.28125 -12.140625 L 4.796875 -12.390625 C 4.796875 -12.640625 4.925781 -12.941406 5.1875 -13.296875 C 5.457031 -13.648438 5.820312 -14 6.28125 -14.34375 C 6.738281 -14.695312 7.265625 -14.988281 7.859375 -15.21875 C 8.460938 -15.445312 9.097656 -15.5625 9.765625 -15.5625 Z M 9.34375 -12.421875 C 8.5 -12.421875 7.765625 -12.210938 7.140625 -11.796875 C 6.515625 -11.378906 6.023438 -10.8125 5.671875 -10.09375 C 5.316406 -9.382812 5.140625 -8.570312 5.140625 -7.65625 C 5.140625 -6.757812 5.316406 -5.941406 5.671875 -5.203125 C 6.023438 -4.472656 6.515625 -3.898438 7.140625 -3.484375 C 7.765625 -3.066406 8.5 -2.859375 9.34375 -2.859375 C 10.175781 -2.859375 10.898438 -3.066406 11.515625 -3.484375 C 12.140625 -3.898438 12.628906 -4.472656 12.984375 -5.203125 C 13.335938 -5.941406 13.515625 -6.757812 13.515625 -7.65625 C 13.515625 -8.570312 13.335938 -9.382812 12.984375 -10.09375 C 12.628906 -10.8125 12.140625 -11.378906 11.515625 -11.796875 C 10.898438 -12.210938 10.175781 -12.421875 9.34375 -12.421875 Z M 9.34375 -12.421875 "/></g></g></g><g fill="#000000" fill-opacity="1"><g transform="translate(29.798376, 70.362707)"><g><path d="M 8.90625 0.28125 C 7.289062 0.28125 5.882812 -0.0546875 4.6875 -0.734375 C 3.5 -1.410156 2.585938 -2.328125 1.953125 -3.484375 C 1.316406 -4.648438 1 -5.960938 1 -7.421875 C 1 -9.140625 1.34375 -10.601562 2.03125 -11.8125 C 2.726562 -13.019531 3.640625 -13.945312 4.765625 -14.59375 C 5.890625 -15.238281 7.082031 -15.5625 8.34375 -15.5625 C 9.3125 -15.5625 10.226562 -15.359375 11.09375 -14.953125 C 11.957031 -14.554688 12.722656 -14.007812 13.390625 -13.3125 C 14.054688 -12.625 14.582031 -11.820312 14.96875 -10.90625 C 15.363281 -10 15.5625 -9.03125 15.5625 -8 C 15.539062 -7.539062 15.359375 -7.164062 15.015625 -6.875 C 14.679688 -6.59375 14.285156 -6.453125 13.828125 -6.453125 L 2.90625 -6.453125 L 2.0625 -9.3125 L 12.53125 -9.3125 L 11.90625 -8.734375 L 11.90625 -9.515625 C 11.875 -10.066406 11.679688 -10.5625 11.328125 -11 C 10.972656 -11.4375 10.53125 -11.78125 10 -12.03125 C 9.476562 -12.289062 8.925781 -12.421875 8.34375 -12.421875 C 7.769531 -12.421875 7.234375 -12.34375 6.734375 -12.1875 C 6.242188 -12.039062 5.816406 -11.785156 5.453125 -11.421875 C 5.085938 -11.054688 4.800781 -10.566406 4.59375 -9.953125 C 4.382812 -9.347656 4.28125 -8.582031 4.28125 -7.65625 C 4.28125 -6.625 4.492188 -5.75 4.921875 -5.03125 C 5.347656 -4.320312 5.898438 -3.78125 6.578125 -3.40625 C 7.253906 -3.039062 7.972656 -2.859375 8.734375 -2.859375 C 9.441406 -2.859375 10.003906 -2.914062 10.421875 -3.03125 C 10.835938 -3.144531 11.175781 -3.28125 11.4375 -3.4375 C 11.695312 -3.601562 11.929688 -3.742188 12.140625 -3.859375 C 12.484375 -4.023438 12.804688 -4.109375 13.109375 -4.109375 C 13.523438 -4.109375 13.867188 -3.960938 14.140625 -3.671875 C 14.421875 -3.390625 14.5625 -3.0625 14.5625 -2.6875 C 14.5625 -2.164062 14.296875 -1.695312 13.765625 -1.28125 C 13.273438 -0.863281 12.582031 -0.5 11.6875 -0.1875 C 10.789062 0.125 9.863281 0.28125 8.90625 0.28125 Z M 8.90625 0.28125 "/></g></g></g><g fill="#000000" fill-opacity="1"><g transform="translate(46.368295, 70.362707)"><g><path d="M 14.21875 -15.5625 C 14.71875 -15.5625 15.128906 -15.398438 15.453125 -15.078125 C 15.773438 -14.753906 15.9375 -14.335938 15.9375 -13.828125 L 15.9375 -1.75 C 15.9375 -1.25 15.773438 -0.832031 15.453125 -0.5 C 15.128906 -0.164062 14.71875 0 14.21875 0 C 13.726562 0 13.320312 -0.164062 13 -0.5 C 12.675781 -0.832031 12.515625 -1.25 12.515625 -1.75 L 12.515625 -3.140625 L 13.140625 -2.890625 C 13.140625 -2.640625 13.003906 -2.335938 12.734375 -1.984375 C 12.472656 -1.628906 12.113281 -1.28125 11.65625 -0.9375 C 11.195312 -0.59375 10.65625 -0.300781 10.03125 -0.0625 C 9.414062 0.164062 8.75 0.28125 8.03125 0.28125 C 6.71875 0.28125 5.523438 -0.0546875 4.453125 -0.734375 C 3.390625 -1.410156 2.546875 -2.34375 1.921875 -3.53125 C 1.304688 -4.71875 1 -6.082031 1 -7.625 C 1 -9.1875 1.304688 -10.5625 1.921875 -11.75 C 2.546875 -12.9375 3.378906 -13.867188 4.421875 -14.546875 C 5.472656 -15.222656 6.632812 -15.5625 7.90625 -15.5625 C 8.726562 -15.5625 9.484375 -15.4375 10.171875 -15.1875 C 10.859375 -14.945312 11.453125 -14.632812 11.953125 -14.25 C 12.453125 -13.875 12.835938 -13.488281 13.109375 -13.09375 C 13.390625 -12.707031 13.53125 -12.378906 13.53125 -12.109375 L 12.515625 -11.734375 L 12.515625 -13.828125 C 12.515625 -14.316406 12.675781 -14.726562 13 -15.0625 C 13.320312 -15.394531 13.726562 -15.5625 14.21875 -15.5625 Z M 8.453125 -2.859375 C 9.296875 -2.859375 10.03125 -3.066406 10.65625 -3.484375 C 11.28125 -3.898438 11.769531 -4.46875 12.125 -5.1875 C 12.476562 -5.914062 12.65625 -6.726562 12.65625 -7.625 C 12.65625 -8.539062 12.476562 -9.359375 12.125 -10.078125 C 11.769531 -10.804688 11.28125 -11.378906 10.65625 -11.796875 C 10.03125 -12.210938 9.296875 -12.421875 8.453125 -12.421875 C 7.628906 -12.421875 6.90625 -12.210938 6.28125 -11.796875 C 5.65625 -11.378906 5.164062 -10.804688 4.8125 -10.078125 C 4.457031 -9.359375 4.28125 -8.539062 4.28125 -7.625 C 4.28125 -6.726562 4.457031 -5.914062 4.8125 -5.1875 C 5.164062 -4.46875 5.65625 -3.898438 6.28125 -3.484375 C 6.90625 -3.066406 7.628906 -2.859375 8.453125 -2.859375 Z M 8.453125 -2.859375 "/></g></g></g><g fill="#000000" fill-opacity="1"><g transform="translate(64.166672, 70.362707)"><g><path d="M 9.875 -15.5625 C 11.40625 -15.5625 12.53125 -15.195312 13.25 -14.46875 C 13.976562 -13.738281 14.457031 -12.789062 14.6875 -11.625 L 14.203125 -11.875 L 14.421875 -12.34375 C 14.648438 -12.78125 15 -13.25 15.46875 -13.75 C 15.945312 -14.257812 16.523438 -14.6875 17.203125 -15.03125 C 17.878906 -15.382812 18.640625 -15.5625 19.484375 -15.5625 C 20.847656 -15.5625 21.882812 -15.265625 22.59375 -14.671875 C 23.3125 -14.085938 23.804688 -13.304688 24.078125 -12.328125 C 24.347656 -11.347656 24.484375 -10.253906 24.484375 -9.046875 L 24.484375 -1.75 C 24.484375 -1.25 24.316406 -0.832031 23.984375 -0.5 C 23.660156 -0.164062 23.253906 0 22.765625 0 C 22.265625 0 21.851562 -0.164062 21.53125 -0.5 C 21.207031 -0.832031 21.046875 -1.25 21.046875 -1.75 L 21.046875 -9.046875 C 21.046875 -9.679688 20.96875 -10.25 20.8125 -10.75 C 20.664062 -11.257812 20.390625 -11.664062 19.984375 -11.96875 C 19.585938 -12.269531 19.019531 -12.421875 18.28125 -12.421875 C 17.550781 -12.421875 16.929688 -12.269531 16.421875 -11.96875 C 15.910156 -11.664062 15.523438 -11.257812 15.265625 -10.75 C 15.003906 -10.25 14.875 -9.679688 14.875 -9.046875 L 14.875 -1.75 C 14.875 -1.25 14.710938 -0.832031 14.390625 -0.5 C 14.066406 -0.164062 13.660156 0 13.171875 0 C 12.671875 0 12.257812 -0.164062 11.9375 -0.5 C 11.613281 -0.832031 11.453125 -1.25 11.453125 -1.75 L 11.453125 -9.046875 C 11.453125 -9.679688 11.375 -10.25 11.21875 -10.75 C 11.070312 -11.257812 10.796875 -11.664062 10.390625 -11.96875 C 9.992188 -12.269531 9.425781 -12.421875 8.6875 -12.421875 C 7.957031 -12.421875 7.335938 -12.269531 6.828125 -11.96875 C 6.316406 -11.664062 5.929688 -11.257812 5.671875 -10.75 C 5.410156 -10.25 5.28125 -9.679688 5.28125 -9.046875 L 5.28125 -1.75 C 5.28125 -1.25 5.117188 -0.832031 4.796875 -0.5 C 4.472656 -0.164062 4.066406 0 3.578125 0 C 3.078125 0 2.664062 -0.164062 2.34375 -0.5 C 2.019531 -0.832031 1.859375 -1.25 1.859375 -1.75 L 1.859375 -13.53125 C 1.859375 -14.03125 2.019531 -14.445312 2.34375 -14.78125 C 2.664062 -15.113281 3.078125 -15.28125 3.578125 -15.28125 C 4.066406 -15.28125 4.472656 -15.113281 4.796875 -14.78125 C 5.117188 -14.445312 5.28125 -14.03125 5.28125 -13.53125 L 5.28125 -12.3125 L 4.859375 -12.390625 C 5.023438 -12.710938 5.257812 -13.0625 5.5625 -13.4375 C 5.875 -13.8125 6.25 -14.160156 6.6875 -14.484375 C 7.125 -14.804688 7.609375 -15.066406 8.140625 -15.265625 C 8.671875 -15.460938 9.25 -15.5625 9.875 -15.5625 Z M 9.875 -15.5625 "/></g></g></g><g fill="#000000" fill-opacity="1"><g transform="translate(90.507126, 70.362707)"><g><path d="M 5.5625 -1.75 C 5.5625 -1.25 5.394531 -0.832031 5.0625 -0.5 C 4.726562 -0.164062 4.316406 0 3.828125 0 C 3.347656 0 2.945312 -0.164062 2.625 -0.5 C 2.300781 -0.832031 2.140625 -1.25 2.140625 -1.75 L 2.140625 -19.390625 C 2.140625 -19.890625 2.304688 -20.304688 2.640625 -20.640625 C 2.972656 -20.972656 3.390625 -21.140625 3.890625 -21.140625 C 4.378906 -21.140625 4.78125 -20.972656 5.09375 -20.640625 C 5.40625 -20.304688 5.5625 -19.890625 5.5625 -19.390625 Z M 5.5625 -1.75 "/></g></g></g><g fill="#000000" fill-opacity="1"><g transform="translate(98.220707, 70.362707)"><g><path d="M 13.203125 -15.28125 C 13.691406 -15.28125 14.097656 -15.113281 14.421875 -14.78125 C 14.742188 -14.445312 14.90625 -14.03125 14.90625 -13.53125 L 14.90625 -1.40625 C 14.90625 0.351562 14.578125 1.75 13.921875 2.78125 C 13.265625 3.820312 12.382812 4.570312 11.28125 5.03125 C 10.175781 5.488281 8.9375 5.71875 7.5625 5.71875 C 6.957031 5.71875 6.3125 5.664062 5.625 5.5625 C 4.9375 5.46875 4.375 5.328125 3.9375 5.140625 C 3.363281 4.890625 2.96875 4.578125 2.75 4.203125 C 2.53125 3.835938 2.488281 3.445312 2.625 3.03125 C 2.800781 2.476562 3.078125 2.097656 3.453125 1.890625 C 3.835938 1.691406 4.238281 1.671875 4.65625 1.828125 C 4.957031 1.921875 5.351562 2.066406 5.84375 2.265625 C 6.34375 2.472656 6.914062 2.578125 7.5625 2.578125 C 8.445312 2.578125 9.175781 2.457031 9.75 2.21875 C 10.332031 1.976562 10.769531 1.578125 11.0625 1.015625 C 11.363281 0.453125 11.515625 -0.3125 11.515625 -1.28125 L 11.515625 -3.203125 L 12.109375 -2.515625 C 11.785156 -1.890625 11.378906 -1.367188 10.890625 -0.953125 C 10.410156 -0.546875 9.835938 -0.238281 9.171875 -0.03125 C 8.503906 0.175781 7.742188 0.28125 6.890625 0.28125 C 5.878906 0.28125 4.992188 0.0507812 4.234375 -0.40625 C 3.484375 -0.875 2.898438 -1.519531 2.484375 -2.34375 C 2.066406 -3.175781 1.859375 -4.128906 1.859375 -5.203125 L 1.859375 -13.53125 C 1.859375 -14.03125 2.019531 -14.445312 2.34375 -14.78125 C 2.664062 -15.113281 3.078125 -15.28125 3.578125 -15.28125 C 4.066406 -15.28125 4.472656 -15.113281 4.796875 -14.78125 C 5.117188 -14.445312 5.28125 -14.03125 5.28125 -13.53125 L 5.28125 -6.234375 C 5.28125 -4.992188 5.550781 -4.117188 6.09375 -3.609375 C 6.632812 -3.109375 7.394531 -2.859375 8.375 -2.859375 C 9.039062 -2.859375 9.597656 -2.984375 10.046875 -3.234375 C 10.503906 -3.492188 10.859375 -3.875 11.109375 -4.375 C 11.359375 -4.882812 11.484375 -5.503906 11.484375 -6.234375 L 11.484375 -13.53125 C 11.484375 -14.03125 11.644531 -14.445312 11.96875 -14.78125 C 12.289062 -15.113281 12.703125 -15.28125 13.203125 -15.28125 Z M 13.203125 -15.28125 "/></g></g></g><g fill="#000000" fill-opacity="1"><g transform="translate(114.990612, 70.362707)"><g><path d="M 3.375 -0.03125 C 2.820312 -0.03125 2.394531 -0.175781 2.09375 -0.46875 C 1.800781 -0.757812 1.65625 -1.1875 1.65625 -1.75 L 1.65625 -2.234375 C 1.65625 -2.785156 1.800781 -3.207031 2.09375 -3.5 C 2.394531 -3.789062 2.820312 -3.9375 3.375 -3.9375 L 3.734375 -3.9375 C 4.285156 -3.9375 4.707031 -3.789062 5 -3.5 C 5.300781 -3.207031 5.453125 -2.785156 5.453125 -2.234375 L 5.453125 -1.75 C 5.453125 -1.1875 5.300781 -0.757812 5 -0.46875 C 4.707031 -0.175781 4.285156 -0.03125 3.734375 -0.03125 Z M 3.375 -0.03125 "/></g></g></g><g fill="#000000" fill-opacity="1"><g transform="translate(122.104246, 70.362707)"><g><path d="M 14.21875 -15.5625 C 14.71875 -15.5625 15.128906 -15.398438 15.453125 -15.078125 C 15.773438 -14.753906 15.9375 -14.335938 15.9375 -13.828125 L 15.9375 -1.75 C 15.9375 -1.25 15.773438 -0.832031 15.453125 -0.5 C 15.128906 -0.164062 14.71875 0 14.21875 0 C 13.726562 0 13.320312 -0.164062 13 -0.5 C 12.675781 -0.832031 12.515625 -1.25 12.515625 -1.75 L 12.515625 -3.140625 L 13.140625 -2.890625 C 13.140625 -2.640625 13.003906 -2.335938 12.734375 -1.984375 C 12.472656 -1.628906 12.113281 -1.28125 11.65625 -0.9375 C 11.195312 -0.59375 10.65625 -0.300781 10.03125 -0.0625 C 9.414062 0.164062 8.75 0.28125 8.03125 0.28125 C 6.71875 0.28125 5.523438 -0.0546875 4.453125 -0.734375 C 3.390625 -1.410156 2.546875 -2.34375 1.921875 -3.53125 C 1.304688 -4.71875 1 -6.082031 1 -7.625 C 1 -9.1875 1.304688 -10.5625 1.921875 -11.75 C 2.546875 -12.9375 3.378906 -13.867188 4.421875 -14.546875 C 5.472656 -15.222656 6.632812 -15.5625 7.90625 -15.5625 C 8.726562 -15.5625 9.484375 -15.4375 10.171875 -15.1875 C 10.859375 -14.945312 11.453125 -14.632812 11.953125 -14.25 C 12.453125 -13.875 12.835938 -13.488281 13.109375 -13.09375 C 13.390625 -12.707031 13.53125 -12.378906 13.53125 -12.109375 L 12.515625 -11.734375 L 12.515625 -13.828125 C 12.515625 -14.316406 12.675781 -14.726562 13 -15.0625 C 13.320312 -15.394531 13.726562 -15.5625 14.21875 -15.5625 Z M 8.453125 -2.859375 C 9.296875 -2.859375 10.03125 -3.066406 10.65625 -3.484375 C 11.28125 -3.898438 11.769531 -4.46875 12.125 -5.1875 C 12.476562 -5.914062 12.65625 -6.726562 12.65625 -7.625 C 12.65625 -8.539062 12.476562 -9.359375 12.125 -10.078125 C 11.769531 -10.804688 11.28125 -11.378906 10.65625 -11.796875 C 10.03125 -12.210938 9.296875 -12.421875 8.453125 -12.421875 C 7.628906 -12.421875 6.90625 -12.210938 6.28125 -11.796875 C 5.65625 -11.378906 5.164062 -10.804688 4.8125 -10.078125 C 4.457031 -9.359375 4.28125 -8.539062 4.28125 -7.625 C 4.28125 -6.726562 4.457031 -5.914062 4.8125 -5.1875 C 5.164062 -4.46875 5.65625 -3.898438 6.28125 -3.484375 C 6.90625 -3.066406 7.628906 -2.859375 8.453125 -2.859375 Z M 8.453125 -2.859375 "/></g></g></g><g fill="#000000" fill-opacity="1"><g transform="translate(139.902623, 70.362707)"><g><path d="M 9.765625 -15.5625 C 11.097656 -15.5625 12.289062 -15.222656 13.34375 -14.546875 C 14.40625 -13.867188 15.242188 -12.941406 15.859375 -11.765625 C 16.484375 -10.585938 16.796875 -9.21875 16.796875 -7.65625 C 16.796875 -6.09375 16.484375 -4.71875 15.859375 -3.53125 C 15.242188 -2.34375 14.414062 -1.410156 13.375 -0.734375 C 12.34375 -0.0546875 11.175781 0.28125 9.875 0.28125 C 9.113281 0.28125 8.398438 0.160156 7.734375 -0.078125 C 7.066406 -0.328125 6.484375 -0.640625 5.984375 -1.015625 C 5.484375 -1.398438 5.09375 -1.785156 4.8125 -2.171875 C 4.539062 -2.566406 4.40625 -2.898438 4.40625 -3.171875 L 5.28125 -3.546875 L 5.28125 3.96875 C 5.28125 4.46875 5.117188 4.882812 4.796875 5.21875 C 4.472656 5.550781 4.066406 5.71875 3.578125 5.71875 C 3.078125 5.71875 2.664062 5.550781 2.34375 5.21875 C 2.019531 4.894531 1.859375 4.476562 1.859375 3.96875 L 1.859375 -13.53125 C 1.859375 -14.03125 2.019531 -14.445312 2.34375 -14.78125 C 2.664062 -15.113281 3.078125 -15.28125 3.578125 -15.28125 C 4.066406 -15.28125 4.472656 -15.113281 4.796875 -14.78125 C 5.117188 -14.445312 5.28125 -14.03125 5.28125 -13.53125 L 5.28125 -12.140625 L 4.796875 -12.390625 C 4.796875 -12.640625 4.925781 -12.941406 5.1875 -13.296875 C 5.457031 -13.648438 5.820312 -14 6.28125 -14.34375 C 6.738281 -14.695312 7.265625 -14.988281 7.859375 -15.21875 C 8.460938 -15.445312 9.097656 -15.5625 9.765625 -15.5625 Z M 9.34375 -12.421875 C 8.5 -12.421875 7.765625 -12.210938 7.140625 -11.796875 C 6.515625 -11.378906 6.023438 -10.8125 5.671875 -10.09375 C 5.316406 -9.382812 5.140625 -8.570312 5.140625 -7.65625 C 5.140625 -6.757812 5.316406 -5.941406 5.671875 -5.203125 C 6.023438 -4.472656 6.515625 -3.898438 7.140625 -3.484375 C 7.765625 -3.066406 8.5 -2.859375 9.34375 -2.859375 C 10.175781 -2.859375 10.898438 -3.066406 11.515625 -3.484375 C 12.140625 -3.898438 12.628906 -4.472656 12.984375 -5.203125 C 13.335938 -5.941406 13.515625 -6.757812 13.515625 -7.65625 C 13.515625 -8.570312 13.335938 -9.382812 12.984375 -10.09375 C 12.628906 -10.8125 12.140625 -11.378906 11.515625 -11.796875 C 10.898438 -12.210938 10.175781 -12.421875 9.34375 -12.421875 Z M 9.34375 -12.421875 "/></g></g></g><g fill="#000000" fill-opacity="1"><g transform="translate(157.700999, 70.362707)"><g><path d="M 9.765625 -15.5625 C 11.097656 -15.5625 12.289062 -15.222656 13.34375 -14.546875 C 14.40625 -13.867188 15.242188 -12.941406 15.859375 -11.765625 C 16.484375 -10.585938 16.796875 -9.21875 16.796875 -7.65625 C 16.796875 -6.09375 16.484375 -4.71875 15.859375 -3.53125 C 15.242188 -2.34375 14.414062 -1.410156 13.375 -0.734375 C 12.34375 -0.0546875 11.175781 0.28125 9.875 0.28125 C 9.113281 0.28125 8.398438 0.160156 7.734375 -0.078125 C 7.066406 -0.328125 6.484375 -0.640625 5.984375 -1.015625 C 5.484375 -1.398438 5.09375 -1.785156 4.8125 -2.171875 C 4.539062 -2.566406 4.40625 -2.898438 4.40625 -3.171875 L 5.28125 -3.546875 L 5.28125 3.96875 C 5.28125 4.46875 5.117188 4.882812 4.796875 5.21875 C 4.472656 5.550781 4.066406 5.71875 3.578125 5.71875 C 3.078125 5.71875 2.664062 5.550781 2.34375 5.21875 C 2.019531 4.894531 1.859375 4.476562 1.859375 3.96875 L 1.859375 -13.53125 C 1.859375 -14.03125 2.019531 -14.445312 2.34375 -14.78125 C 2.664062 -15.113281 3.078125 -15.28125 3.578125 -15.28125 C 4.066406 -15.28125 4.472656 -15.113281 4.796875 -14.78125 C 5.117188 -14.445312 5.28125 -14.03125 5.28125 -13.53125 L 5.28125 -12.140625 L 4.796875 -12.390625 C 4.796875 -12.640625 4.925781 -12.941406 5.1875 -13.296875 C 5.457031 -13.648438 5.820312 -14 6.28125 -14.34375 C 6.738281 -14.695312 7.265625 -14.988281 7.859375 -15.21875 C 8.460938 -15.445312 9.097656 -15.5625 9.765625 -15.5625 Z M 9.34375 -12.421875 C 8.5 -12.421875 7.765625 -12.210938 7.140625 -11.796875 C 6.515625 -11.378906 6.023438 -10.8125 5.671875 -10.09375 C 5.316406 -9.382812 5.140625 -8.570312 5.140625 -7.65625 C 5.140625 -6.757812 5.316406 -5.941406 5.671875 -5.203125 C 6.023438 -4.472656 6.515625 -3.898438 7.140625 -3.484375 C 7.765625 -3.066406 8.5 -2.859375 9.34375 -2.859375 C 10.175781 -2.859375 10.898438 -3.066406 11.515625 -3.484375 C 12.140625 -3.898438 12.628906 -4.472656 12.984375 -5.203125 C 13.335938 -5.941406 13.515625 -6.757812 13.515625 -7.65625 C 13.515625 -8.570312 13.335938 -9.382812 12.984375 -10.09375 C 12.628906 -10.8125 12.140625 -11.378906 11.515625 -11.796875 C 10.898438 -12.210938 10.175781 -12.421875 9.34375 -12.421875 Z M 9.34375 -12.421875 "/></g></g></g></svg>